<svg xmlns="http://www.w3.org/2000/svg" width="1772" height="1181" viewBox="0 0 1772 1181">
  <rect width="1772" height="1181" fill="#f5f7fb"/>
  <rect x="38" y="38" width="1696" height="1105" fill="none" stroke="#101820" stroke-width="18"/>
  <rect x="94" y="94" width="1584" height="993" fill="#101820"/>
  <rect x="138" y="138" width="1496" height="905" fill="#f5f7fb"/>
  <g fill="#101820">
    <rect x="168" y="168" width="220" height="220"/>
    <rect x="1384" y="168" width="220" height="220"/>
    <rect x="168" y="793" width="220" height="220"/>
    <rect x="208" y="208" width="140" height="140" fill="#f5f7fb"/>
    <rect x="248" y="248" width="60" height="60"/>
    <rect x="1424" y="208" width="140" height="140" fill="#f5f7fb"/>
    <rect x="1464" y="248" width="60" height="60"/>
    <rect x="208" y="833" width="140" height="140" fill="#f5f7fb"/>
    <rect x="248" y="873" width="60" height="60"/>
  </g>
  <g fill="#101820">
    <rect x="514" y="178" width="84" height="84"/>
    <rect x="682" y="178" width="126" height="42"/>
    <rect x="934" y="178" width="42" height="126"/>
    <rect x="1102" y="178" width="126" height="84"/>
    <rect x="514" y="346" width="42" height="126"/>
    <rect x="640" y="304" width="84" height="84"/>
    <rect x="808" y="346" width="168" height="42"/>
    <rect x="1060" y="304" width="84" height="126"/>
    <rect x="1234" y="346" width="84" height="84"/>
    <rect x="472" y="514" width="126" height="42"/>
    <rect x="682" y="472" width="42" height="126"/>
    <rect x="766" y="514" width="126" height="84"/>
    <rect x="976" y="472" width="84" height="42"/>
    <rect x="1144" y="514" width="168" height="84"/>
    <rect x="514" y="682" width="84" height="126"/>
    <rect x="682" y="724" width="168" height="42"/>
    <rect x="934" y="640" width="42" height="168"/>
    <rect x="1060" y="682" width="126" height="126"/>
    <rect x="1270" y="640" width="84" height="42"/>
    <rect x="472" y="892" width="168" height="42"/>
    <rect x="724" y="850" width="84" height="126"/>
    <rect x="892" y="892" width="126" height="42"/>
    <rect x="1102" y="850" width="42" height="126"/>
    <rect x="1228" y="850" width="126" height="84"/>
  </g>
  <g fill="none" stroke="#2f6df6" stroke-width="22" stroke-linecap="square">
    <path d="M514 590 L640 590 L640 640 L766 640 L766 540 L892 540"/>
    <path d="M1260 590 L1134 590 L1134 640 L1008 640 L1008 540 L882 540"/>
    <path d="M886 390 L886 510"/>
    <path d="M886 670 L886 790"/>
  </g>
  <g fill="#2f6df6">
    <circle cx="886" cy="590" r="30"/>
    <circle cx="514" cy="590" r="18"/>
    <circle cx="1260" cy="590" r="18"/>
    <circle cx="886" cy="390" r="18"/>
    <circle cx="886" cy="790" r="18"/>
  </g>
  <g fill="#101820" font-family="Inter, Arial, sans-serif" font-weight="700">
    <text x="466" y="1110" font-size="54">A1 QR ENTRY / SPATIAL PORTAL</text>
    <text x="466" y="1162" font-size="32">InnerWorld campus wall entry target asset v1</text>
  </g>
</svg>
