<svg xmlns="http://www.w3.org/2000/svg" width="1772" height="1181" viewBox="0 0 1772 1181">
  <rect width="1772" height="1181" fill="#f7fbff"/>
  <rect x="38" y="38" width="1696" height="1105" fill="none" stroke="#111820" stroke-width="18"/>
  <rect x="94" y="94" width="1584" height="993" fill="#101820"/>
  <rect x="138" y="138" width="1496" height="905" fill="#f7fbff"/>
  <g fill="#101820">
    <rect x="168" y="168" width="190" height="190"/>
    <rect x="1414" y="168" width="190" height="190"/>
    <rect x="168" y="823" width="190" height="190"/>
    <rect x="1414" y="823" width="190" height="190"/>
    <rect x="446" y="206" width="112" height="112"/>
    <rect x="1214" y="206" width="72" height="176"/>
    <rect x="446" y="846" width="176" height="72"/>
    <rect x="1176" y="846" width="148" height="148"/>
  </g>
  <g fill="none" stroke="#101820" stroke-width="20" stroke-linecap="square">
    <path d="M458 590 C560 396 758 318 936 382 C1092 438 1170 578 1148 742 C1126 906 946 980 768 918 C612 864 520 742 458 590"/>
    <path d="M584 590 C650 492 768 450 888 486 C1004 520 1050 612 1020 716 C990 820 870 860 754 818 C650 780 602 704 584 590"/>
    <path d="M706 590 C746 542 814 526 882 554 C946 580 970 632 946 692 C922 752 848 770 782 740 C726 714 704 662 706 590"/>
    <path d="M366 468 L520 468 L520 520 L632 520 L632 438 L754 438"/>
    <path d="M1018 438 L1136 438 L1136 520 L1250 520 L1250 468 L1406 468"/>
    <path d="M366 708 L520 708 L520 656 L632 656 L632 738 L754 738"/>
    <path d="M1018 738 L1136 738 L1136 656 L1250 656 L1250 708 L1406 708"/>
  </g>
  <g fill="#2ec7a6">
    <circle cx="886" cy="590" r="24"/>
    <circle cx="694" cy="410" r="15"/>
    <circle cx="1078" cy="410" r="15"/>
    <circle cx="694" cy="770" r="15"/>
    <circle cx="1078" cy="770" r="15"/>
  </g>
  <g fill="#101820" font-family="Inter, Arial, sans-serif" font-weight="700">
    <text x="448" y="1110" font-size="54">A2 IMAGE TARGET / MEMORY BEACON</text>
    <text x="448" y="1162" font-size="32">InnerWorld campus wall target asset v1</text>
  </g>
</svg>
