<svg xmlns="http://www.w3.org/2000/svg" viewBox="0 0 1200 800" role="img" aria-label="Whale cloud TimeMark placeholder">
  <defs>
    <linearGradient id="sky" x1="0" x2="1" y1="0" y2="1">
      <stop offset="0" stop-color="#7dd3fc"/>
      <stop offset="0.52" stop-color="#dbeafe"/>
      <stop offset="1" stop-color="#fef3c7"/>
    </linearGradient>
    <filter id="soft" x="-20%" y="-20%" width="140%" height="140%">
      <feGaussianBlur stdDeviation="16"/>
    </filter>
  </defs>
  <rect width="1200" height="800" fill="url(#sky)"/>
  <circle cx="960" cy="150" r="82" fill="#fff7cc" opacity="0.86"/>
  <g fill="#ffffff" opacity="0.92" filter="url(#soft)">
    <ellipse cx="470" cy="340" rx="210" ry="92"/>
    <ellipse cx="330" cy="350" rx="110" ry="70"/>
    <ellipse cx="620" cy="330" rx="130" ry="78"/>
    <ellipse cx="760" cy="354" rx="86" ry="46"/>
    <path d="M710 337 C820 280 910 285 990 345 C915 378 820 390 710 337 Z"/>
    <path d="M283 333 C210 292 165 285 98 318 C154 363 218 371 283 333 Z"/>
  </g>
  <path d="M282 338 C412 245 641 244 773 337 C690 426 395 426 282 338 Z" fill="#eef8ff" opacity="0.72"/>
  <circle cx="665" cy="322" r="10" fill="#74a9c9" opacity="0.8"/>
  <path d="M196 526 C346 610 702 618 935 512" fill="none" stroke="#ffffff" stroke-width="3" opacity="0.36"/>
  <text x="80" y="680" fill="#0b2545" font-family="Arial, sans-serif" font-size="42" font-weight="700">Whale Cloud / 17:23</text>
  <text x="80" y="728" fill="#1f3a5f" font-family="Arial, sans-serif" font-size="28">今天没有鲸鱼，但有晚风。</text>
</svg>
